<svg xmlns="http://www.w3.org/2000/svg" viewBox="0 0 100 100"><defs><linearGradient id="g" gradientUnits="userSpaceOnUse" x1="10" y1="0" x2="90" y2="100"><stop offset="0" stop-color="#ffe24d"/><stop offset=".45" stop-color="#f5b90a"/><stop offset="1" stop-color="#d69400"/></linearGradient></defs><rect width="100" height="100" rx="22.5" fill="url(#g)"/><path fill="#fff" d="M19 71V30C19 26 22 23 26.5 23Q33 23 37 26.5L50 37L63 26.5Q67 23 73.5 23C78 23 82 26.5 82 31V61.7H79.2V71C79.2 75 76.2 78 72.2 78H26C22 78 19 75 19 71Z"/><path fill="url(#g)" d="M72.5 55H31Q28 55 28 52V45Q28 42 31 42Q34 42 37 44L46 50Q50 52.5 54 50L63 45Q67 43 70 45Q72.5 46.5 72.5 50Z"/><path d="M70 53.6H72.5A8.1 8.1 0 0 1 80.6 61.7" fill="none" stroke="url(#g)" stroke-width="2.8"/><circle cx="67" cy="66" r="4" fill="url(#g)"/></svg>
